<svg width="391" height="118" viewBox="0 0 391 118" fill="none" xmlns="http://www.w3.org/2000/svg">
<g clip-path="url(#clip0_375_583)">
<path d="M-0.000189248 15.2572C2.19042 14.2141 4.26573 13.4576 6.20268 12.9646C8.13964 12.4717 10.0881 12.1393 12.0251 11.9559C13.962 11.7725 15.9336 11.6808 17.9397 11.6808H24.4885C24.9381 11.6808 25.7106 11.6922 26.8059 11.7152C27.9012 11.7381 29.0887 11.7496 30.357 11.7496H36.1448C36.7674 11.9559 37.2401 12.3227 37.586 12.8385C37.9203 13.3544 38.174 13.9046 38.3469 14.4778C38.5199 15.0509 38.6236 15.6355 38.6813 16.2316C38.7389 16.8277 38.762 17.2862 38.762 17.5957H10.8952V34.3317H41.1255C41.1255 36.097 40.5375 37.484 39.35 38.4927C38.1625 39.5015 36.6867 40.2924 34.9227 40.8656C33.1471 41.4387 31.1641 41.817 28.9734 41.9889C26.7828 42.1723 24.696 42.2526 22.7245 42.2182C20.7529 42.1953 19.012 42.1265 17.4901 42.0233C15.9682 41.9201 14.9536 41.8628 14.4463 41.8628V43.502C14.4463 45.68 15.0112 47.7433 16.1296 49.6921C17.2595 51.6408 18.5047 53.5207 19.8882 55.3318C21.2717 57.143 22.54 58.9427 23.6929 60.708C24.8459 62.4733 25.4224 64.2615 25.4224 66.0727C25.4224 67.219 25.1687 68.2162 24.6614 69.0645C24.1541 69.9128 23.2318 70.3484 21.8713 70.3484C20.5108 70.3484 19.0696 69.672 17.6861 68.3194C16.3025 66.9668 14.9651 65.1671 13.6738 62.9089C12.3825 60.6507 11.1488 58.06 9.99589 55.1255C8.84294 52.191 7.74764 49.1304 6.69845 45.9437C5.64927 42.7569 4.72691 39.5932 3.90831 36.4523C3.08972 33.3114 2.39795 30.3769 1.84453 27.6602C1.27959 24.932 0.829935 22.5362 0.495579 20.4614C0.161224 18.3866 -0.0117188 16.885 -0.0117188 15.945V15.2458L-0.000189248 15.2572Z" fill="#544A48"/>
<path d="M55.6755 16.8162C56.5749 17.4352 57.3127 18.2032 57.8662 19.1088C58.4311 20.0144 58.8808 20.9429 59.2151 21.8714C59.2728 23.843 59.2958 26.2044 59.2958 28.9555C59.2958 31.7066 59.4111 34.5609 59.6302 37.5184C59.8492 40.4758 60.2758 43.4218 60.8984 46.3563C61.521 49.2908 62.4895 51.9159 63.8154 54.2543C65.1413 56.5928 66.9053 58.4727 69.1305 59.8941C71.3557 61.327 74.1573 62.0377 77.5355 62.0377C80.6254 62.0377 83.2887 61.3614 85.5139 60.0087C87.7391 58.6561 89.5953 56.9481 91.0827 54.8733C92.57 52.7985 93.6768 50.4715 94.3801 47.9038C95.0834 45.3361 95.4408 42.8372 95.4408 40.3956C95.4408 35.6728 95.1872 30.8584 94.6799 25.9522C94.1726 21.046 93.2502 16.3118 91.8897 11.7496C92.2817 10.8211 92.789 10.2823 93.4116 10.1562C94.0342 10.0301 94.7029 9.96133 95.4408 9.96133C96.905 9.96133 98.058 10.5116 98.8997 11.6005C99.7413 12.6895 100.375 14.0765 100.802 15.7616C101.229 17.4467 101.482 19.2922 101.563 21.2868C101.644 23.2813 101.644 25.1727 101.563 26.9724C101.482 28.7606 101.367 30.3425 101.229 31.7181C101.09 33.0936 101.021 33.9648 101.021 34.3202C101.021 37.014 100.952 39.7536 100.814 42.5277C100.675 45.3017 100.329 47.9611 99.799 50.5059C99.2686 53.0507 98.4731 55.4235 97.4354 57.6244C96.3978 59.8253 95.0027 61.7511 93.2502 63.3789C91.5092 65.0181 89.3417 66.3019 86.7476 67.2304C84.1534 68.1704 81.0635 68.6289 77.4548 68.6289C72.8891 68.6289 69.1535 67.8265 66.225 66.2217C63.2965 64.6169 60.9445 62.4733 59.169 59.8024C57.3934 57.1315 56.0676 54.0824 55.2028 50.6549C54.3266 47.2275 53.7155 43.7313 53.3466 40.1434C52.9776 36.5669 52.724 33.0363 52.5856 29.563C52.4473 26.0898 52.2628 22.9489 52.0322 20.1405L55.664 16.7933L55.6755 16.8162Z" fill="#544A48"/>
<path d="M113.139 23.3501C113.139 22.5248 113.323 21.7568 113.692 21.0575C114.061 20.3583 114.776 20.0029 115.848 20.0029C116.748 20.0029 117.635 20.8626 118.512 22.5706C119.388 24.2786 120.287 26.4795 121.21 29.1504C122.144 31.8213 123.112 34.7558 124.127 37.9425C125.141 41.1292 126.213 44.2242 127.332 47.2046C128.462 50.185 129.638 52.8558 130.883 55.2172C132.117 57.5786 133.442 59.2293 134.849 60.1578C136.198 59.6419 137.282 58.7134 138.1 57.3952C138.919 56.0769 139.576 54.495 140.083 52.6495C140.591 50.804 140.971 48.8094 141.225 46.6544C141.478 44.4993 141.732 42.3443 141.986 40.1892C142.239 38.0342 142.505 35.9365 142.793 33.8846C143.07 31.8327 143.485 30.033 144.015 28.4741C144.545 26.9151 145.237 25.6771 146.079 24.7371C146.92 23.8086 147.993 23.3386 149.284 23.3386C150.068 23.3386 150.771 23.4074 151.394 23.5335C152.016 23.6596 152.547 24.1984 152.996 25.1269C153.216 25.8032 153.584 26.789 154.092 28.0843C154.599 29.3796 155.176 30.8813 155.821 32.6007C156.467 34.3087 157.205 36.1428 158.012 38.0915C158.83 40.0402 159.672 41.9431 160.548 43.8115C161.425 45.68 162.278 47.4568 163.119 49.1418C163.961 50.8269 164.78 52.2712 165.564 53.4634C165.679 53.6697 165.967 53.9907 166.451 54.4377C166.936 54.8848 167.258 55.1255 167.42 55.1714L171.052 51.8242C172.009 50.9415 172.735 49.6347 173.242 47.8924C173.75 46.15 174.13 44.144 174.384 41.8628C174.637 39.5817 174.81 37.1286 174.891 34.5036C174.972 31.8786 175.041 29.2765 175.098 26.6858C175.156 24.0952 175.271 21.5733 175.433 19.1317C175.606 16.6901 175.883 14.558 176.275 12.7125C176.667 10.8669 177.231 9.39965 177.958 8.31067C178.684 7.22168 179.699 6.67146 181.002 6.67146C181.059 6.67146 181.128 6.68292 181.209 6.70585C181.29 6.72877 181.394 6.74024 181.509 6.74024C181.682 6.79755 181.786 6.82048 181.843 6.82048C181.901 6.82048 182.039 6.91218 182.27 7.09559C182.489 7.279 182.708 7.45094 182.904 7.59996C183.1 7.76044 183.273 7.90946 183.411 8.06994C183.55 8.23043 183.653 8.35652 183.711 8.45969C183.711 8.8265 183.723 9.46843 183.757 10.4084C183.78 11.3369 183.803 12.3571 183.803 13.4461C183.803 14.5351 183.815 15.5667 183.849 16.5182C183.872 17.4811 183.896 18.1459 183.896 18.5013C183.896 19.5444 183.884 20.9658 183.849 22.777C183.815 24.5996 183.734 26.6514 183.596 28.967C183.457 31.271 183.261 33.747 183.008 36.3606C182.754 38.9856 182.374 41.5763 181.866 44.144C181.359 46.7117 180.725 49.1762 179.964 51.5376C179.203 53.899 178.269 55.9738 177.174 57.762C176.079 59.5502 174.81 60.9831 173.369 62.0377C171.928 63.1037 170.233 63.631 168.262 63.631C166.29 63.631 164.733 63.0464 163.408 61.8772C162.082 60.708 160.94 59.2522 159.983 57.5213C159.026 55.7789 158.208 53.8875 157.539 51.8356C156.859 49.7838 156.179 47.8809 155.475 46.1156C154.772 44.3503 154.011 42.883 153.192 41.7138C152.374 40.5446 151.382 39.96 150.195 39.96C150.079 39.96 149.93 39.9829 149.734 40.0402C149.538 40.0975 149.376 40.1205 149.272 40.1205C149.215 40.3268 149.042 41.2324 148.765 42.8486C148.488 44.4535 148.085 46.3678 147.578 48.5687C147.07 50.7696 146.448 53.1539 145.721 55.6872C144.995 58.232 144.153 60.5704 143.231 62.6911C142.297 64.8232 141.294 66.6 140.187 68.0214C139.092 69.4542 137.893 70.1649 136.602 70.1649C133.95 70.1649 131.54 69.2479 129.338 67.4024C127.147 65.5568 125.187 63.1725 123.469 60.238C121.752 57.3035 120.241 54.048 118.95 50.4715C117.659 46.8951 116.575 43.3759 115.699 39.9256C114.822 36.4752 114.177 33.2541 113.762 30.2738C113.335 27.2934 113.127 24.9664 113.127 23.3043L113.139 23.3501Z" fill="#544A48"/>
<path d="M215.844 1.86847C216.178 0.928502 216.674 0.389742 217.319 0.22926C217.965 0.0687779 218.715 0 219.556 0C220.847 0 222.3 0.790946 223.903 2.37284C225.505 3.95473 227.154 6.06392 228.837 8.71187C230.521 11.3598 232.227 14.3975 233.945 17.8135C235.663 21.2409 237.323 24.783 238.926 28.4397C240.528 32.0964 242.039 35.7416 243.445 39.3754C244.852 43.0091 246.074 46.3449 247.123 49.3826C248.161 52.4202 248.968 55.0567 249.533 57.2806C250.098 59.5158 250.375 61.0404 250.375 61.8772C250.375 62.714 250.167 63.4935 249.74 64.25C249.314 65.0066 248.576 65.3734 247.504 65.3734C246.823 65.3734 246.247 65.1786 245.774 64.7888C245.29 64.3991 244.887 63.9176 244.552 63.3445C244.218 62.7713 243.907 62.2096 243.618 61.6365C243.33 61.0633 243.088 60.5704 242.857 60.1578C242.627 59.5846 242.166 58.4956 241.462 56.8908C240.759 55.286 240.021 53.6009 239.272 51.8356C238.511 50.0703 237.796 48.4082 237.116 46.8492C236.435 45.2903 235.963 44.1784 235.674 43.502C231.731 42.883 227.777 42.2984 223.811 41.7482C219.844 41.198 215.659 40.6707 211.266 40.1548H210.333C208.303 48.2019 206.516 54.5524 204.971 59.2293C203.426 63.8947 202.124 67.219 201.086 69.1906C200.048 71.1622 199.23 71.9761 198.642 71.6437C198.054 71.2998 197.662 70.1076 197.454 68.0672C197.247 66.0268 197.281 63.2757 197.535 59.8597C197.788 56.4323 198.261 52.661 198.976 48.5343C199.679 44.4076 200.533 40.0861 201.547 35.5811C202.562 31.0647 203.784 26.7088 205.225 22.5018C206.666 18.2949 208.269 14.3975 210.033 10.7867C211.797 7.17583 213.734 4.20692 215.821 1.87993L215.844 1.86847ZM213.814 29.265C213.814 31.1908 214.495 32.6007 215.844 33.5063C217.193 34.4119 218.83 34.9965 220.744 35.2602C222.658 35.5238 224.675 35.627 226.785 35.5697C228.895 35.5238 230.717 35.4894 232.227 35.4894C232.227 33.4146 231.858 31.1679 231.132 28.7606C230.394 26.3419 229.472 23.9462 228.342 21.5619C227.212 19.1776 226.024 16.8506 224.756 14.5924C223.488 12.3342 222.323 10.3052 221.251 8.48261C220.628 9.05576 219.971 10.0989 219.268 11.6349C218.565 13.171 217.861 14.879 217.158 16.7704C216.455 18.6617 215.821 20.5187 215.256 22.3299C214.691 24.1411 214.264 25.6312 213.987 26.7661C213.987 26.9266 213.953 27.3278 213.907 27.9697C213.849 28.6231 213.826 29.0472 213.826 29.2535L213.814 29.265Z" fill="#544A48"/>
<path d="M262.319 15.2572C262.319 14.8446 262.33 14.1568 262.365 13.1939C262.4 12.231 262.411 11.2223 262.411 10.1562C262.411 9.09015 262.423 8.08141 262.457 7.11852C262.48 6.15563 262.503 5.50224 262.503 5.13542C263.126 4.04644 264.094 3.25549 265.42 2.76258C266.746 2.26967 268.176 1.93725 269.721 1.75384C271.266 1.57043 272.788 1.51312 274.286 1.55897C275.774 1.61628 277.007 1.63921 277.964 1.63921C279.198 1.63921 280.651 1.69652 282.311 1.79969C283.971 1.90286 285.631 2.09773 287.292 2.3843C288.952 2.67088 290.601 3.08355 292.226 3.63377C293.864 4.18399 295.305 4.88323 296.573 5.7315C297.841 6.59122 298.856 7.62289 299.617 8.84943C300.378 10.076 300.758 11.5088 300.758 13.171C300.758 15.1426 300.251 16.9194 299.236 18.5013C298.222 20.0832 296.965 21.5619 295.478 22.9374C293.99 24.313 292.353 25.5969 290.578 26.789C288.802 27.9812 287.176 29.1504 285.678 30.2967C284.179 31.443 282.934 32.6007 281.919 33.8044C280.904 35.008 280.397 36.2918 280.397 37.6903C280.397 37.7935 280.443 37.9425 280.524 38.1144C280.605 38.2978 280.651 38.4125 280.651 38.4698C287.292 40.2809 293.748 42.4933 300.032 45.0839C306.304 47.6746 312.484 50.483 318.571 53.4863C318.744 53.5895 318.917 53.7843 319.125 54.0709C319.321 54.3575 319.505 54.6899 319.678 55.0797C319.851 55.4694 320.012 55.8248 320.185 56.1343C320.358 56.4438 320.439 56.7074 320.439 56.9137C320.439 57.3837 320.301 57.7276 320.012 57.9683C319.724 58.1976 319.39 58.381 318.998 58.5071C318.606 58.6332 318.214 58.702 317.81 58.702H316.796C313.752 58.702 310.731 58.0944 307.722 56.8679C304.713 55.6528 301.681 54.2887 298.648 52.7756C295.605 51.274 292.526 49.8984 289.402 48.6489C286.277 47.3995 283.026 46.7805 279.648 46.7805H276.95C277.849 48.7062 278.656 50.4142 279.359 51.9159C280.063 53.4175 280.651 54.8733 281.135 56.2718C281.608 57.6703 281.977 59.0917 282.23 60.5131C282.484 61.946 282.611 63.482 282.611 65.1442V66.428C282.611 66.9209 282.576 67.4253 282.53 67.9411C282.472 68.457 282.299 68.927 282.023 69.3396C281.746 69.7523 281.296 70.0389 280.674 70.1993C278.368 68.9499 276.293 67.0241 274.471 64.3991C272.638 61.774 271.047 58.7822 269.698 55.4121C268.349 52.042 267.207 48.4541 266.273 44.6713C265.34 40.8885 264.579 37.163 263.991 33.5063C263.403 29.8496 262.976 26.4222 262.722 23.2355C262.469 20.0488 262.342 17.3894 262.342 15.2572H262.319ZM269.582 20.1634C269.582 20.8397 269.536 21.7109 269.456 22.7655C269.375 23.8316 269.352 24.9205 269.409 26.0324C269.467 27.1444 269.652 28.2104 269.963 29.2192C270.274 30.2279 270.793 31.0991 271.519 31.8213C271.635 31.8671 271.738 31.9015 271.854 31.9015C271.911 31.9588 272.05 31.9817 272.28 31.9817C273.295 31.9817 274.517 31.6952 275.958 31.122C277.399 30.5489 278.898 29.8038 280.478 28.8638C282.057 27.9353 283.614 26.8578 285.159 25.6312C286.704 24.4162 288.099 23.1552 289.344 21.8599C290.578 20.5646 291.581 19.2578 292.342 17.9281C293.103 16.6099 293.483 15.3948 293.483 14.3058C293.483 13.2168 293.056 12.3686 292.215 11.6235C291.373 10.8784 290.359 10.2594 289.171 9.78939C287.984 9.31941 286.761 8.98698 285.493 8.78065C284.225 8.57432 283.199 8.47115 282.415 8.47115C281.458 8.47115 280.328 8.45969 279.037 8.43676C277.745 8.41384 276.466 8.48261 275.197 8.66602C273.929 8.84943 272.788 9.17039 271.773 9.64037C270.758 10.1104 270.055 10.8096 269.663 11.7381V15.8992C269.663 16.8047 269.652 17.653 269.617 18.4325C269.582 19.212 269.571 19.7851 269.571 20.1405L269.582 20.1634Z" fill="#544A48"/>
<path d="M357.853 59.3897C357.853 56.6386 357.484 53.6582 356.757 50.4371C356.031 47.216 355.235 43.9262 354.394 40.5561C353.552 37.1859 352.733 33.8273 351.949 30.4801C351.165 27.1329 350.739 23.9806 350.681 21.0231H331.854V19.2349C331.854 18.4554 331.934 17.6645 332.107 16.8621C332.28 16.0596 332.534 15.3375 332.868 14.6841C333.202 14.0307 333.71 13.6295 334.39 13.4805H380.831C380.773 15.1426 380.404 16.415 379.736 17.2976C379.055 18.1803 378.179 18.8566 377.072 19.3266C375.977 19.7966 374.755 20.0946 373.394 20.2207C372.045 20.3468 370.696 20.4958 369.336 20.6448C367.987 20.8053 366.661 21.0002 365.37 21.2295C364.078 21.4587 362.96 21.9172 362.038 22.5935C361.104 23.2699 360.401 24.1869 359.928 25.3561C359.455 26.5254 359.328 28.0958 359.547 30.0674C359.547 31.1564 359.628 32.6007 359.801 34.389C359.974 36.1772 360.251 38.1144 360.643 40.1892C361.035 42.264 361.542 44.3503 362.165 46.4595C362.787 48.5572 363.56 50.483 364.482 52.2139C365.416 53.9563 366.477 55.3548 367.687 56.4208C368.898 57.4869 370.316 58.0142 371.953 58.0142C373.083 58.1173 374.524 58.1288 376.3 58.0486C378.075 57.9683 379.862 57.911 381.661 57.8537C383.46 57.8078 385.166 57.8308 386.769 57.9339C388.371 58.0371 389.536 58.3466 390.274 58.8739C391 59.3897 391.173 60.1578 390.781 61.1665C390.389 62.1752 389.144 63.5393 387.068 65.2473C383.471 66.4968 379.816 67.3336 376.138 67.7806C372.449 68.2277 368.748 68.457 365.035 68.4799C361.323 68.5028 357.599 68.457 353.886 68.3194C350.174 68.1933 346.484 68.1245 342.83 68.1245C340.743 65.7861 339.509 63.9979 339.117 62.7484C338.725 61.4989 338.875 60.6392 339.578 60.1463C340.282 59.6534 341.411 59.3897 342.956 59.3668C344.501 59.3439 346.173 59.3897 347.983 59.5273C349.782 59.6534 351.581 59.7566 353.391 59.8368C355.189 59.917 356.688 59.768 357.864 59.4127L357.853 59.3897Z" fill="#544A48"/>
<path d="M89.9688 104.945C90.2188 104.773 90.5156 104.555 90.8594 104.289C91.2188 104.008 91.5781 103.711 91.9375 103.398C92.2969 103.086 92.6328 102.758 92.9453 102.414C93.2578 102.07 93.5 101.742 93.6719 101.43C93.8594 101.102 93.9531 100.797 93.9531 100.516C93.9531 100.234 93.8125 100 93.5312 99.8125C93.0312 99.8125 92.4844 99.8359 91.8906 99.8828C91.2969 99.9141 90.7031 99.9297 90.1094 99.9297C89.5156 99.9141 88.9375 99.8594 88.375 99.7656C87.8281 99.6719 87.3359 99.5 86.8984 99.25C86.4609 99 86.1094 98.6484 85.8438 98.1953C85.5938 97.7266 85.4688 97.1328 85.4688 96.4141C85.4688 95.5703 85.625 94.8125 85.9375 94.1406C86.2656 93.4531 86.6953 92.8516 87.2266 92.3359C87.7578 91.8047 88.3516 91.3438 89.0078 90.9531C89.6797 90.5469 90.3516 90.2031 91.0234 89.9219C91.4297 90.0312 91.8047 90.2266 92.1484 90.5078C92.4922 90.7891 92.7891 91.1016 93.0391 91.4453C92.9297 91.7891 92.7109 92.0547 92.3828 92.2422C92.0703 92.4297 91.7031 92.5938 91.2812 92.7344C90.875 92.875 90.4453 93.0234 89.9922 93.1797C89.5391 93.3359 89.125 93.5469 88.75 93.8125C88.3906 94.0625 88.0859 94.3984 87.8359 94.8203C87.5859 95.2266 87.4609 95.7656 87.4609 96.4375C87.4609 96.9375 87.5859 97.3047 87.8359 97.5391C88.0859 97.7734 88.4141 97.9375 88.8203 98.0312C89.2266 98.1094 89.6875 98.1406 90.2031 98.125C90.7188 98.0938 91.2422 98.0547 91.7734 98.0078C92.3203 97.9609 92.8516 97.9375 93.3672 97.9375C93.8828 97.9219 94.3438 97.9844 94.75 98.125C95.1562 98.25 95.4766 98.4609 95.7109 98.7578C95.9609 99.0547 96.0859 99.4922 96.0859 100.07C96.0859 100.32 96 100.641 95.8281 101.031C95.6719 101.422 95.4531 101.844 95.1719 102.297C94.9062 102.734 94.5859 103.172 94.2109 103.609C93.8516 104.047 93.4688 104.445 93.0625 104.805C92.6719 105.148 92.2734 105.438 91.8672 105.672C91.4766 105.891 91.1094 106 90.7656 106C90.4375 106 90.2188 105.883 90.1094 105.648C90.0156 105.414 89.9688 105.18 89.9688 104.945ZM96.5078 95.9688C96.5078 95.7031 96.5625 95.4609 96.6719 95.2422C96.7969 95.0234 97.0078 94.9141 97.3047 94.9141C97.3203 94.9141 97.3438 94.9219 97.375 94.9375C97.4062 94.9375 97.4375 94.9375 97.4688 94.9375C97.5 94.9375 97.5312 94.9375 97.5625 94.9375C97.6094 94.9688 97.6953 95.0469 97.8203 95.1719C97.9609 95.2969 98.0469 95.3906 98.0781 95.4531C98.125 95.5469 98.2188 95.75 98.3594 96.0625C98.5156 96.375 98.6953 96.7422 98.8984 97.1641C99.1172 97.5703 99.3359 98.0078 99.5547 98.4766C99.7891 98.9297 100.008 99.3672 100.211 99.7891C100.43 100.211 100.609 100.578 100.75 100.891C100.906 101.188 101.016 101.383 101.078 101.477C101.094 101.523 101.164 101.617 101.289 101.758C101.43 101.883 101.531 101.961 101.594 101.992C101.719 101.773 101.844 101.445 101.969 101.008C102.094 100.57 102.219 100.094 102.344 99.5781C102.484 99.0469 102.625 98.5078 102.766 97.9609C102.906 97.3984 103.062 96.8984 103.234 96.4609C103.422 96.0078 103.625 95.6406 103.844 95.3594C104.062 95.0625 104.312 94.9141 104.594 94.9141C105 94.9141 105.383 95.0703 105.742 95.3828C106.117 95.6953 106.469 96.1016 106.797 96.6016C107.141 97.1016 107.461 97.6641 107.758 98.2891C108.07 98.8984 108.359 99.5078 108.625 100.117C108.906 100.711 109.164 101.266 109.398 101.781C109.648 102.281 109.891 102.68 110.125 102.977C110.312 102.914 110.469 102.758 110.594 102.508C110.719 102.258 110.812 102 110.875 101.734C110.953 101.453 111.008 101.195 111.039 100.961C111.07 100.711 111.094 100.547 111.109 100.469C111.125 100.297 111.148 100.031 111.18 99.6719C111.211 99.2969 111.242 98.875 111.273 98.4062C111.32 97.9375 111.359 97.4531 111.391 96.9531C111.422 96.4531 111.453 95.9688 111.484 95.5C111.531 95.0312 111.562 94.6172 111.578 94.2578C111.609 93.8828 111.625 93.6172 111.625 93.4609C111.656 93.4609 111.734 93.4531 111.859 93.4375C111.984 93.4062 112.07 93.3906 112.117 93.3906C112.336 93.3906 112.531 93.4141 112.703 93.4609C112.875 93.5078 113.008 93.6719 113.102 93.9531C113.102 94.0625 113.102 94.2578 113.102 94.5391C113.117 94.8203 113.125 95.125 113.125 95.4531C113.141 95.7656 113.148 96.0703 113.148 96.3672C113.164 96.6484 113.172 96.8438 113.172 96.9531C113.172 97.2031 113.172 97.5938 113.172 98.125C113.188 98.6406 113.18 99.2188 113.148 99.8594C113.133 100.5 113.086 101.156 113.008 101.828C112.93 102.484 112.805 103.094 112.633 103.656C112.477 104.203 112.258 104.656 111.977 105.016C111.695 105.359 111.344 105.531 110.922 105.531C110.438 105.531 109.984 105.414 109.562 105.18C109.141 104.945 108.742 104.633 108.367 104.242C108.008 103.852 107.664 103.422 107.336 102.953C107.008 102.469 106.703 101.984 106.422 101.5C106.156 101 105.906 100.531 105.672 100.094C105.453 99.6406 105.258 99.2578 105.086 98.9453C104.961 99.2266 104.844 99.5781 104.734 100C104.641 100.422 104.531 100.883 104.406 101.383C104.281 101.867 104.141 102.359 103.984 102.859C103.828 103.344 103.648 103.789 103.445 104.195C103.258 104.586 103.031 104.906 102.766 105.156C102.516 105.406 102.227 105.531 101.898 105.531C101.742 105.531 101.602 105.539 101.477 105.555C101.352 105.555 101.234 105.547 101.125 105.531C101.016 105.5 100.914 105.445 100.82 105.367C100.727 105.289 100.641 105.164 100.562 104.992L96.5547 96.4375C96.5547 96.4219 96.5469 96.3594 96.5312 96.25C96.5156 96.125 96.5078 96.0312 96.5078 95.9688ZM114.625 99.4844C114.625 98.6406 114.727 97.7969 114.93 96.9531C115.133 96.1094 115.453 95.3516 115.891 94.6797C116.344 94.0078 116.922 93.4609 117.625 93.0391C118.344 92.6172 119.211 92.4062 120.227 92.4062C120.805 92.4062 121.312 92.5156 121.75 92.7344C122.188 92.9375 122.555 93.2109 122.852 93.5547C123.148 93.8984 123.367 94.3047 123.508 94.7734C123.664 95.2266 123.742 95.7031 123.742 96.2031C123.742 97 123.555 97.7734 123.18 98.5234C122.82 99.2734 122.328 99.9375 121.703 100.516C121.094 101.078 120.391 101.508 119.594 101.805C118.797 102.086 117.984 102.148 117.156 101.992C117.172 102.445 117.32 102.812 117.602 103.094C117.898 103.359 118.25 103.562 118.656 103.703C119.062 103.844 119.484 103.938 119.922 103.984C120.359 104.016 120.75 104.031 121.094 104.031C121.453 104.031 121.789 104 122.102 103.938C122.414 103.875 122.727 103.805 123.039 103.727C123.352 103.648 123.664 103.578 123.977 103.516C124.305 103.453 124.648 103.422 125.008 103.422C125.148 103.422 125.289 103.43 125.43 103.445C125.57 103.461 125.703 103.5 125.828 103.562C125.953 103.609 126.055 103.695 126.133 103.82C126.211 103.93 126.25 104.07 126.25 104.242C126.25 104.539 126.141 104.789 125.922 104.992C125.703 105.18 125.422 105.344 125.078 105.484C124.75 105.625 124.383 105.734 123.977 105.812C123.57 105.875 123.172 105.93 122.781 105.977C122.406 106.008 122.055 106.023 121.727 106.023C121.414 106.039 121.18 106.047 121.023 106.047C120.023 106.047 119.125 105.891 118.328 105.578C117.531 105.25 116.859 104.805 116.312 104.242C115.766 103.664 115.344 102.977 115.047 102.18C114.766 101.367 114.625 100.469 114.625 99.4844ZM117.109 97.9609C117.109 98.5078 117.18 98.9062 117.32 99.1562C117.477 99.4062 117.844 99.5312 118.422 99.5312C118.828 99.5312 119.227 99.4609 119.617 99.3203C120.008 99.1641 120.359 98.9531 120.672 98.6875C121 98.4219 121.258 98.1094 121.445 97.75C121.633 97.3906 121.727 97 121.727 96.5781C121.727 96.3438 121.703 96.1016 121.656 95.8516C121.625 95.6016 121.547 95.375 121.422 95.1719C121.297 94.9531 121.133 94.7812 120.93 94.6562C120.742 94.5156 120.492 94.4453 120.18 94.4453C119.711 94.4453 119.281 94.5547 118.891 94.7734C118.516 94.9766 118.195 95.25 117.93 95.5938C117.664 95.9219 117.461 96.2969 117.32 96.7188C117.18 97.125 117.109 97.5391 117.109 97.9609ZM127.703 99.4844C127.703 98.6406 127.805 97.7969 128.008 96.9531C128.211 96.1094 128.531 95.3516 128.969 94.6797C129.422 94.0078 130 93.4609 130.703 93.0391C131.422 92.6172 132.289 92.4062 133.305 92.4062C133.883 92.4062 134.391 92.5156 134.828 92.7344C135.266 92.9375 135.633 93.2109 135.93 93.5547C136.227 93.8984 136.445 94.3047 136.586 94.7734C136.742 95.2266 136.82 95.7031 136.82 96.2031C136.82 97 136.633 97.7734 136.258 98.5234C135.898 99.2734 135.406 99.9375 134.781 100.516C134.172 101.078 133.469 101.508 132.672 101.805C131.875 102.086 131.062 102.148 130.234 101.992C130.25 102.445 130.398 102.812 130.68 103.094C130.977 103.359 131.328 103.562 131.734 103.703C132.141 103.844 132.562 103.938 133 103.984C133.438 104.016 133.828 104.031 134.172 104.031C134.531 104.031 134.867 104 135.18 103.938C135.492 103.875 135.805 103.805 136.117 103.727C136.43 103.648 136.742 103.578 137.055 103.516C137.383 103.453 137.727 103.422 138.086 103.422C138.227 103.422 138.367 103.43 138.508 103.445C138.648 103.461 138.781 103.5 138.906 103.562C139.031 103.609 139.133 103.695 139.211 103.82C139.289 103.93 139.328 104.07 139.328 104.242C139.328 104.539 139.219 104.789 139 104.992C138.781 105.18 138.5 105.344 138.156 105.484C137.828 105.625 137.461 105.734 137.055 105.812C136.648 105.875 136.25 105.93 135.859 105.977C135.484 106.008 135.133 106.023 134.805 106.023C134.492 106.039 134.258 106.047 134.102 106.047C133.102 106.047 132.203 105.891 131.406 105.578C130.609 105.25 129.938 104.805 129.391 104.242C128.844 103.664 128.422 102.977 128.125 102.18C127.844 101.367 127.703 100.469 127.703 99.4844ZM130.188 97.9609C130.188 98.5078 130.258 98.9062 130.398 99.1562C130.555 99.4062 130.922 99.5312 131.5 99.5312C131.906 99.5312 132.305 99.4609 132.695 99.3203C133.086 99.1641 133.438 98.9531 133.75 98.6875C134.078 98.4219 134.336 98.1094 134.523 97.75C134.711 97.3906 134.805 97 134.805 96.5781C134.805 96.3438 134.781 96.1016 134.734 95.8516C134.703 95.6016 134.625 95.375 134.5 95.1719C134.375 94.9531 134.211 94.7812 134.008 94.6562C133.82 94.5156 133.57 94.4453 133.258 94.4453C132.789 94.4453 132.359 94.5547 131.969 94.7734C131.594 94.9766 131.273 95.25 131.008 95.5938C130.742 95.9219 130.539 96.2969 130.398 96.7188C130.258 97.125 130.188 97.5391 130.188 97.9609ZM140.266 94.1875C140.266 94.1406 140.273 94.1016 140.289 94.0703C140.289 94.0391 140.297 94 140.312 93.9531C140.375 93.875 140.469 93.7734 140.594 93.6484C140.719 93.5234 140.797 93.4609 140.828 93.4609H145.539C145.539 93.2891 145.516 93.0156 145.469 92.6406C145.422 92.2656 145.375 91.8516 145.328 91.3984C145.297 90.9453 145.289 90.4766 145.305 89.9922C145.32 89.4922 145.383 89.0469 145.492 88.6562C145.617 88.25 145.805 87.9219 146.055 87.6719C146.32 87.4062 146.688 87.2734 147.156 87.2734C147.156 88.8516 147.266 90.1172 147.484 91.0703C147.703 92.0234 147.992 92.7578 148.352 93.2734C148.727 93.7891 149.148 94.125 149.617 94.2812C150.086 94.4375 150.562 94.5078 151.047 94.4922C151.547 94.4609 152.031 94.3828 152.5 94.2578C152.969 94.1328 153.383 94.0469 153.742 94C154.117 93.9531 154.414 93.9922 154.633 94.1172C154.852 94.2266 154.961 94.5 154.961 94.9375C154.961 95.2656 154.883 95.5 154.727 95.6406C154.586 95.7812 154.305 95.8906 153.883 95.9688C153.758 95.9844 153.547 96.0156 153.25 96.0625C152.969 96.0938 152.648 96.125 152.289 96.1562C151.93 96.1875 151.547 96.2266 151.141 96.2734C150.734 96.3047 150.352 96.3359 149.992 96.3672C149.633 96.3984 149.305 96.4219 149.008 96.4375C148.711 96.4375 148.492 96.4375 148.352 96.4375C148.352 96.5156 148.344 96.6484 148.328 96.8359C148.312 97.0234 148.305 97.1484 148.305 97.2109C148.305 97.8984 148.414 98.5703 148.633 99.2266C148.852 99.8672 149.086 100.508 149.336 101.148C149.602 101.789 149.844 102.43 150.062 103.07C150.281 103.711 150.391 104.375 150.391 105.062C150.391 105.188 150.375 105.32 150.344 105.461C150.328 105.586 150.281 105.703 150.203 105.812C150.141 105.906 150.039 105.977 149.898 106.023C149.773 106.086 149.594 106.078 149.359 106C148.766 105.844 148.32 105.508 148.023 104.992C147.742 104.477 147.531 103.867 147.391 103.164C147.25 102.445 147.156 101.688 147.109 100.891C147.062 100.094 146.984 99.3516 146.875 98.6641C146.781 97.9609 146.625 97.3672 146.406 96.8828C146.188 96.3828 145.836 96.0781 145.352 95.9688L140.828 94.9375C140.766 94.9375 140.672 94.875 140.547 94.75C140.422 94.6094 140.344 94.5078 140.312 94.4453C140.297 94.4141 140.289 94.375 140.289 94.3281C140.273 94.2969 140.266 94.25 140.266 94.1875ZM160.352 104.945C160.602 104.773 160.898 104.555 161.242 104.289C161.602 104.008 161.961 103.711 162.32 103.398C162.68 103.086 163.016 102.758 163.328 102.414C163.641 102.07 163.883 101.742 164.055 101.43C164.242 101.102 164.336 100.797 164.336 100.516C164.336 100.234 164.195 100 163.914 99.8125C163.414 99.8125 162.867 99.8359 162.273 99.8828C161.68 99.9141 161.086 99.9297 160.492 99.9297C159.898 99.9141 159.32 99.8594 158.758 99.7656C158.211 99.6719 157.719 99.5 157.281 99.25C156.844 99 156.492 98.6484 156.227 98.1953C155.977 97.7266 155.852 97.1328 155.852 96.4141C155.852 95.5703 156.008 94.8125 156.32 94.1406C156.648 93.4531 157.078 92.8516 157.609 92.3359C158.141 91.8047 158.734 91.3438 159.391 90.9531C160.062 90.5469 160.734 90.2031 161.406 89.9219C161.812 90.0312 162.188 90.2266 162.531 90.5078C162.875 90.7891 163.172 91.1016 163.422 91.4453C163.312 91.7891 163.094 92.0547 162.766 92.2422C162.453 92.4297 162.086 92.5938 161.664 92.7344C161.258 92.875 160.828 93.0234 160.375 93.1797C159.922 93.3359 159.508 93.5469 159.133 93.8125C158.773 94.0625 158.469 94.3984 158.219 94.8203C157.969 95.2266 157.844 95.7656 157.844 96.4375C157.844 96.9375 157.969 97.3047 158.219 97.5391C158.469 97.7734 158.797 97.9375 159.203 98.0312C159.609 98.1094 160.07 98.1406 160.586 98.125C161.102 98.0938 161.625 98.0547 162.156 98.0078C162.703 97.9609 163.234 97.9375 163.75 97.9375C164.266 97.9219 164.727 97.9844 165.133 98.125C165.539 98.25 165.859 98.4609 166.094 98.7578C166.344 99.0547 166.469 99.4922 166.469 100.07C166.469 100.32 166.383 100.641 166.211 101.031C166.055 101.422 165.836 101.844 165.555 102.297C165.289 102.734 164.969 103.172 164.594 103.609C164.234 104.047 163.852 104.445 163.445 104.805C163.055 105.148 162.656 105.438 162.25 105.672C161.859 105.891 161.492 106 161.148 106C160.82 106 160.602 105.883 160.492 105.648C160.398 105.414 160.352 105.18 160.352 104.945ZM178.211 101.242C178.211 100.273 178.438 99.375 178.891 98.5469C179.344 97.7031 179.938 96.9844 180.672 96.3906C181.422 95.7812 182.258 95.3047 183.18 94.9609C184.117 94.6172 185.062 94.4453 186.016 94.4453C186.547 94.4453 187.016 94.6172 187.422 94.9609C187.844 95.3047 188.195 95.7266 188.477 96.2266C188.758 96.7109 188.969 97.2266 189.109 97.7734C189.266 98.3203 189.344 98.7969 189.344 99.2031C189.344 100.078 189.133 100.93 188.711 101.758C188.289 102.57 187.742 103.297 187.07 103.938C186.398 104.562 185.641 105.07 184.797 105.461C183.953 105.852 183.109 106.047 182.266 106.047C181.516 106.047 180.883 105.922 180.367 105.672C179.852 105.406 179.438 105.062 179.125 104.641C178.812 104.203 178.578 103.695 178.422 103.117C178.281 102.523 178.211 101.898 178.211 101.242ZM180.203 101.477C180.203 101.883 180.234 102.242 180.297 102.555C180.375 102.852 180.5 103.109 180.672 103.328C180.859 103.547 181.102 103.719 181.398 103.844C181.695 103.953 182.062 104.008 182.5 104.008C183.078 104.008 183.656 103.852 184.234 103.539C184.812 103.211 185.328 102.805 185.781 102.32C186.25 101.82 186.625 101.273 186.906 100.68C187.188 100.086 187.328 99.5078 187.328 98.9453C187.328 98.6953 187.305 98.4219 187.258 98.125C187.211 97.8281 187.133 97.5547 187.023 97.3047C186.914 97.0547 186.758 96.8438 186.555 96.6719C186.352 96.5 186.094 96.4141 185.781 96.4141C185.5 96.4141 185.164 96.5078 184.773 96.6953C184.398 96.8828 184 97.125 183.578 97.4219C183.172 97.7188 182.766 98.0547 182.359 98.4297C181.969 98.8047 181.609 99.1797 181.281 99.5547C180.953 99.9297 180.688 100.289 180.484 100.633C180.297 100.977 180.203 101.258 180.203 101.477ZM190.258 98.1016C190.258 97.6953 190.359 97.4062 190.562 97.2344C190.766 97.0469 191.094 96.9531 191.547 96.9531H191.781C191.828 97.2031 191.883 97.4922 191.945 97.8203C192.008 98.1484 192.102 98.4844 192.227 98.8281C192.352 99.1719 192.5 99.4922 192.672 99.7891C192.844 100.07 193.055 100.297 193.305 100.469C193.32 99.9219 193.453 99.3984 193.703 98.8984C193.969 98.3828 194.289 97.9297 194.664 97.5391C195.055 97.1328 195.477 96.7969 195.93 96.5312C196.398 96.25 196.859 96.0625 197.312 95.9688H197.828C198.578 95.9688 199.219 96.1406 199.75 96.4844C200.281 96.8125 200.719 97.25 201.062 97.7969C201.422 98.3281 201.695 98.9375 201.883 99.625C202.07 100.312 202.211 101.016 202.305 101.734C202.414 102.438 202.477 103.125 202.492 103.797C202.523 104.453 202.539 105.016 202.539 105.484H200.828C200.734 104.547 200.617 103.648 200.477 102.789C200.43 102.445 200.367 102.086 200.289 101.711C200.211 101.32 200.125 100.961 200.031 100.633C199.938 100.289 199.836 99.9766 199.727 99.6953C199.617 99.3984 199.492 99.1484 199.352 98.9453C199.289 98.8828 199.203 98.7969 199.094 98.6875C199 98.5781 198.898 98.4688 198.789 98.3594C198.68 98.25 198.578 98.1562 198.484 98.0781C198.391 98 198.336 97.9609 198.32 97.9609C197.852 97.8359 197.445 97.9297 197.102 98.2422C196.758 98.5391 196.453 98.9453 196.188 99.4609C195.922 99.9766 195.703 100.562 195.531 101.219C195.375 101.875 195.242 102.508 195.133 103.117C195.023 103.711 194.945 104.234 194.898 104.688C194.852 105.125 194.82 105.391 194.805 105.484C194.414 105.766 194.047 105.852 193.703 105.742C193.359 105.617 193.031 105.367 192.719 104.992C192.422 104.617 192.148 104.148 191.898 103.586C191.664 103.023 191.445 102.43 191.242 101.805C191.039 101.164 190.852 100.523 190.68 99.8828C190.523 99.2422 190.383 98.6484 190.258 98.1016ZM204.391 92.7344C204.391 92.2812 204.359 91.8438 204.297 91.4219C204.234 90.9844 204.219 90.6016 204.25 90.2734C204.281 89.9297 204.398 89.6562 204.602 89.4531C204.82 89.25 205.211 89.1484 205.773 89.1484C205.945 89.5078 206.109 90.0547 206.266 90.7891C206.438 91.5234 206.602 92.3672 206.758 93.3203C206.914 94.2734 207.062 95.3125 207.203 96.4375C207.344 97.5469 207.469 98.6641 207.578 99.7891C207.703 100.914 207.805 102.023 207.883 103.117C207.977 104.195 208.047 105.18 208.094 106.07C207.578 106.414 207.164 106.438 206.852 106.141C206.539 105.844 206.281 105.344 206.078 104.641C205.875 103.922 205.719 103.055 205.609 102.039C205.5 101.008 205.391 99.9453 205.281 98.8516C205.188 97.7422 205.07 96.6562 204.93 95.5938C204.789 94.5156 204.609 93.5625 204.391 92.7344ZM210.297 97.2109C210.297 97.1172 210.297 96.9688 210.297 96.7656C210.312 96.5469 210.32 96.3203 210.32 96.0859C210.336 95.8516 210.344 95.625 210.344 95.4062C210.359 95.1875 210.367 95.0312 210.367 94.9375C210.539 94.6875 210.758 94.4844 211.023 94.3281C211.305 94.1719 211.586 94.0469 211.867 93.9531C211.914 94.7969 212.047 95.6953 212.266 96.6484C212.484 97.6016 212.719 98.5625 212.969 99.5312C213.219 100.484 213.438 101.43 213.625 102.367C213.828 103.305 213.93 104.18 213.93 104.992C213.93 105.695 213.57 106.047 212.852 106.047C212.414 106.047 212.047 105.867 211.75 105.508C211.453 105.148 211.211 104.695 211.023 104.148C210.852 103.586 210.711 102.969 210.602 102.297C210.492 101.609 210.414 100.938 210.367 100.281C210.336 99.625 210.312 99.0234 210.297 98.4766C210.297 97.9297 210.297 97.5078 210.297 97.2109ZM210.625 88.4219C210.922 88.5469 211.172 88.75 211.375 89.0312C211.578 89.3125 211.664 89.5703 211.633 89.8047C211.617 90.0234 211.445 90.1797 211.117 90.2734C210.789 90.3516 210.242 90.2578 209.477 89.9922C209.477 89.5703 209.555 89.2031 209.711 88.8906C209.883 88.5781 210.188 88.4219 210.625 88.4219ZM214.844 98.1016C214.844 97.6953 214.945 97.4062 215.148 97.2344C215.352 97.0469 215.68 96.9531 216.133 96.9531H216.367C216.414 97.2031 216.469 97.4922 216.531 97.8203C216.594 98.1484 216.688 98.4844 216.812 98.8281C216.938 99.1719 217.086 99.4922 217.258 99.7891C217.43 100.07 217.641 100.297 217.891 100.469C217.906 99.9219 218.039 99.3984 218.289 98.8984C218.555 98.3828 218.875 97.9297 219.25 97.5391C219.641 97.1328 220.062 96.7969 220.516 96.5312C220.984 96.25 221.445 96.0625 221.898 95.9688H222.414C223.164 95.9688 223.805 96.1406 224.336 96.4844C224.867 96.8125 225.305 97.25 225.648 97.7969C226.008 98.3281 226.281 98.9375 226.469 99.625C226.656 100.312 226.797 101.016 226.891 101.734C227 102.438 227.062 103.125 227.078 103.797C227.109 104.453 227.125 105.016 227.125 105.484H225.414C225.32 104.547 225.203 103.648 225.062 102.789C225.016 102.445 224.953 102.086 224.875 101.711C224.797 101.32 224.711 100.961 224.617 100.633C224.523 100.289 224.422 99.9766 224.312 99.6953C224.203 99.3984 224.078 99.1484 223.938 98.9453C223.875 98.8828 223.789 98.7969 223.68 98.6875C223.586 98.5781 223.484 98.4688 223.375 98.3594C223.266 98.25 223.164 98.1562 223.07 98.0781C222.977 98 222.922 97.9609 222.906 97.9609C222.438 97.8359 222.031 97.9297 221.688 98.2422C221.344 98.5391 221.039 98.9453 220.773 99.4609C220.508 99.9766 220.289 100.562 220.117 101.219C219.961 101.875 219.828 102.508 219.719 103.117C219.609 103.711 219.531 104.234 219.484 104.688C219.438 105.125 219.406 105.391 219.391 105.484C219 105.766 218.633 105.852 218.289 105.742C217.945 105.617 217.617 105.367 217.305 104.992C217.008 104.617 216.734 104.148 216.484 103.586C216.25 103.023 216.031 102.43 215.828 101.805C215.625 101.164 215.438 100.523 215.266 99.8828C215.109 99.2422 214.969 98.6484 214.844 98.1016ZM228.414 99.4844C228.414 98.6406 228.516 97.7969 228.719 96.9531C228.922 96.1094 229.242 95.3516 229.68 94.6797C230.133 94.0078 230.711 93.4609 231.414 93.0391C232.133 92.6172 233 92.4062 234.016 92.4062C234.594 92.4062 235.102 92.5156 235.539 92.7344C235.977 92.9375 236.344 93.2109 236.641 93.5547C236.938 93.8984 237.156 94.3047 237.297 94.7734C237.453 95.2266 237.531 95.7031 237.531 96.2031C237.531 97 237.344 97.7734 236.969 98.5234C236.609 99.2734 236.117 99.9375 235.492 100.516C234.883 101.078 234.18 101.508 233.383 101.805C232.586 102.086 231.773 102.148 230.945 101.992C230.961 102.445 231.109 102.812 231.391 103.094C231.688 103.359 232.039 103.562 232.445 103.703C232.852 103.844 233.273 103.938 233.711 103.984C234.148 104.016 234.539 104.031 234.883 104.031C235.242 104.031 235.578 104 235.891 103.938C236.203 103.875 236.516 103.805 236.828 103.727C237.141 103.648 237.453 103.578 237.766 103.516C238.094 103.453 238.438 103.422 238.797 103.422C238.938 103.422 239.078 103.43 239.219 103.445C239.359 103.461 239.492 103.5 239.617 103.562C239.742 103.609 239.844 103.695 239.922 103.82C240 103.93 240.039 104.07 240.039 104.242C240.039 104.539 239.93 104.789 239.711 104.992C239.492 105.18 239.211 105.344 238.867 105.484C238.539 105.625 238.172 105.734 237.766 105.812C237.359 105.875 236.961 105.93 236.57 105.977C236.195 106.008 235.844 106.023 235.516 106.023C235.203 106.039 234.969 106.047 234.812 106.047C233.812 106.047 232.914 105.891 232.117 105.578C231.32 105.25 230.648 104.805 230.102 104.242C229.555 103.664 229.133 102.977 228.836 102.18C228.555 101.367 228.414 100.469 228.414 99.4844ZM230.898 97.9609C230.898 98.5078 230.969 98.9062 231.109 99.1562C231.266 99.4062 231.633 99.5312 232.211 99.5312C232.617 99.5312 233.016 99.4609 233.406 99.3203C233.797 99.1641 234.148 98.9531 234.461 98.6875C234.789 98.4219 235.047 98.1094 235.234 97.75C235.422 97.3906 235.516 97 235.516 96.5781C235.516 96.3438 235.492 96.1016 235.445 95.8516C235.414 95.6016 235.336 95.375 235.211 95.1719C235.086 94.9531 234.922 94.7812 234.719 94.6562C234.531 94.5156 234.281 94.4453 233.969 94.4453C233.5 94.4453 233.07 94.5547 232.68 94.7734C232.305 94.9766 231.984 95.25 231.719 95.5938C231.453 95.9219 231.25 96.2969 231.109 96.7188C230.969 97.125 230.898 97.5391 230.898 97.9609ZM256.797 104.945C257.047 104.773 257.344 104.555 257.688 104.289C258.047 104.008 258.406 103.711 258.766 103.398C259.125 103.086 259.461 102.758 259.773 102.414C260.086 102.07 260.328 101.742 260.5 101.43C260.688 101.102 260.781 100.797 260.781 100.516C260.781 100.234 260.641 100 260.359 99.8125C259.859 99.8125 259.312 99.8359 258.719 99.8828C258.125 99.9141 257.531 99.9297 256.938 99.9297C256.344 99.9141 255.766 99.8594 255.203 99.7656C254.656 99.6719 254.164 99.5 253.727 99.25C253.289 99 252.938 98.6484 252.672 98.1953C252.422 97.7266 252.297 97.1328 252.297 96.4141C252.297 95.5703 252.453 94.8125 252.766 94.1406C253.094 93.4531 253.523 92.8516 254.055 92.3359C254.586 91.8047 255.18 91.3438 255.836 90.9531C256.508 90.5469 257.18 90.2031 257.852 89.9219C258.258 90.0312 258.633 90.2266 258.977 90.5078C259.32 90.7891 259.617 91.1016 259.867 91.4453C259.758 91.7891 259.539 92.0547 259.211 92.2422C258.898 92.4297 258.531 92.5938 258.109 92.7344C257.703 92.875 257.273 93.0234 256.82 93.1797C256.367 93.3359 255.953 93.5469 255.578 93.8125C255.219 94.0625 254.914 94.3984 254.664 94.8203C254.414 95.2266 254.289 95.7656 254.289 96.4375C254.289 96.9375 254.414 97.3047 254.664 97.5391C254.914 97.7734 255.242 97.9375 255.648 98.0312C256.055 98.1094 256.516 98.1406 257.031 98.125C257.547 98.0938 258.07 98.0547 258.602 98.0078C259.148 97.9609 259.68 97.9375 260.195 97.9375C260.711 97.9219 261.172 97.9844 261.578 98.125C261.984 98.25 262.305 98.4609 262.539 98.7578C262.789 99.0547 262.914 99.4922 262.914 100.07C262.914 100.32 262.828 100.641 262.656 101.031C262.5 101.422 262.281 101.844 262 102.297C261.734 102.734 261.414 103.172 261.039 103.609C260.68 104.047 260.297 104.445 259.891 104.805C259.5 105.148 259.102 105.438 258.695 105.672C258.305 105.891 257.938 106 257.594 106C257.266 106 257.047 105.883 256.938 105.648C256.844 105.414 256.797 105.18 256.797 104.945ZM264.531 90.7656C264.531 90.5938 264.547 90.3828 264.578 90.1328C264.625 89.8672 264.695 89.6172 264.789 89.3828C264.898 89.1484 265.031 88.9531 265.188 88.7969C265.344 88.625 265.547 88.5391 265.797 88.5391C265.812 88.5391 265.852 88.5469 265.914 88.5625C265.977 88.5781 266.016 88.5859 266.031 88.5859C266.297 89.5547 266.453 90.5156 266.5 91.4688C266.547 92.4219 266.531 93.3516 266.453 94.2578C266.375 95.1484 266.258 96.0156 266.102 96.8594C265.945 97.6875 265.812 98.4531 265.703 99.1562C265.609 99.8594 265.547 100.492 265.516 101.055C265.5 101.617 265.586 102.094 265.773 102.484C265.742 102.234 265.719 101.938 265.703 101.594C265.703 101.234 265.734 100.867 265.797 100.492C265.875 100.117 265.992 99.7422 266.148 99.3672C266.32 98.9922 266.562 98.6562 266.875 98.3594C267.188 98.0625 267.586 97.8281 268.07 97.6562C268.57 97.4844 269.188 97.3984 269.922 97.3984C270.688 97.3984 271.344 97.5312 271.891 97.7969C272.453 98.0625 272.914 98.4297 273.273 98.8984C273.633 99.3516 273.898 99.8906 274.07 100.516C274.258 101.125 274.352 101.781 274.352 102.484C274.352 102.812 274.344 103.188 274.328 103.609C274.328 104.016 274.273 104.398 274.164 104.758C274.07 105.102 273.891 105.398 273.625 105.648C273.375 105.883 273 106 272.5 106C272.5 105.75 272.516 105.414 272.547 104.992C272.578 104.555 272.594 104.094 272.594 103.609C272.609 103.125 272.594 102.633 272.547 102.133C272.516 101.633 272.414 101.188 272.242 100.797C272.07 100.391 271.828 100.062 271.516 99.8125C271.219 99.5469 270.805 99.4141 270.273 99.4141C270.086 99.4141 269.852 99.4297 269.57 99.4609C269.305 99.4766 269.031 99.5469 268.75 99.6719C268.469 99.7969 268.195 99.9922 267.93 100.258C267.664 100.508 267.453 100.859 267.297 101.312C267.141 101.75 267.047 102.312 267.016 103C267 103.672 267.086 104.5 267.273 105.484C267.164 105.766 267.023 105.93 266.852 105.977C266.695 106.023 266.492 106.047 266.242 106.047C265.742 106.047 265.328 105.875 265 105.531C264.688 105.172 264.445 104.695 264.273 104.102C264.102 103.508 263.984 102.82 263.922 102.039C263.875 101.258 263.859 100.445 263.875 99.6016C263.891 98.7422 263.93 97.875 263.992 97C264.07 96.1094 264.141 95.2734 264.203 94.4922C264.281 93.6953 264.352 92.9766 264.414 92.3359C264.492 91.6797 264.531 91.1562 264.531 90.7656ZM275.289 101.242C275.289 100.273 275.516 99.375 275.969 98.5469C276.422 97.7031 277.016 96.9844 277.75 96.3906C278.5 95.7812 279.336 95.3047 280.258 94.9609C281.195 94.6172 282.141 94.4453 283.094 94.4453C283.625 94.4453 284.094 94.6172 284.5 94.9609C284.922 95.3047 285.273 95.7266 285.555 96.2266C285.836 96.7109 286.047 97.2266 286.188 97.7734C286.344 98.3203 286.422 98.7969 286.422 99.2031C286.422 100.078 286.211 100.93 285.789 101.758C285.367 102.57 284.82 103.297 284.148 103.938C283.477 104.562 282.719 105.07 281.875 105.461C281.031 105.852 280.188 106.047 279.344 106.047C278.594 106.047 277.961 105.922 277.445 105.672C276.93 105.406 276.516 105.062 276.203 104.641C275.891 104.203 275.656 103.695 275.5 103.117C275.359 102.523 275.289 101.898 275.289 101.242ZM277.281 101.477C277.281 101.883 277.312 102.242 277.375 102.555C277.453 102.852 277.578 103.109 277.75 103.328C277.938 103.547 278.18 103.719 278.477 103.844C278.773 103.953 279.141 104.008 279.578 104.008C280.156 104.008 280.734 103.852 281.312 103.539C281.891 103.211 282.406 102.805 282.859 102.32C283.328 101.82 283.703 101.273 283.984 100.68C284.266 100.086 284.406 99.5078 284.406 98.9453C284.406 98.6953 284.383 98.4219 284.336 98.125C284.289 97.8281 284.211 97.5547 284.102 97.3047C283.992 97.0547 283.836 96.8438 283.633 96.6719C283.43 96.5 283.172 96.4141 282.859 96.4141C282.578 96.4141 282.242 96.5078 281.852 96.6953C281.477 96.8828 281.078 97.125 280.656 97.4219C280.25 97.7188 279.844 98.0547 279.438 98.4297C279.047 98.8047 278.688 99.1797 278.359 99.5547C278.031 99.9297 277.766 100.289 277.562 100.633C277.375 100.977 277.281 101.258 277.281 101.477ZM287.336 97.3516C287.336 95.8359 287.688 94.7109 288.391 93.9766C289.094 93.2422 290.172 92.875 291.625 92.875C292.219 92.875 292.828 92.9297 293.453 93.0391C294.094 93.1484 294.68 93.3438 295.211 93.625C295.742 93.8906 296.172 94.2656 296.5 94.75C296.844 95.2344 297.016 95.8594 297.016 96.625C297.016 97.4688 296.828 98.2656 296.453 99.0156C296.094 99.75 295.633 100.445 295.07 101.102C294.523 101.742 293.914 102.344 293.242 102.906C292.586 103.453 291.969 103.977 291.391 104.477C291.359 104.539 291.328 104.672 291.297 104.875C291.281 105.062 291.273 105.188 291.273 105.25C291.273 105.766 291.422 106.281 291.719 106.797C292.031 107.328 292.367 107.859 292.727 108.391C293.086 108.938 293.414 109.5 293.711 110.078C294.008 110.656 294.156 111.258 294.156 111.883C294.156 112.258 294.078 112.477 293.922 112.539C293.766 112.617 293.438 112.656 292.938 112.656C292.625 112.531 292.312 112.234 292 111.766C291.703 111.312 291.398 110.75 291.086 110.078C290.789 109.406 290.492 108.648 290.195 107.805C289.914 106.977 289.641 106.133 289.375 105.273C289.125 104.398 288.883 103.539 288.648 102.695C288.43 101.836 288.234 101.047 288.062 100.328C287.891 99.6094 287.734 98.9922 287.594 98.4766C287.469 97.9453 287.383 97.5703 287.336 97.3516ZM289.328 97.5625C289.328 97.7969 289.344 98.1406 289.375 98.5938C289.406 99.0312 289.469 99.4688 289.562 99.9062C289.672 100.344 289.828 100.727 290.031 101.055C290.234 101.367 290.516 101.523 290.875 101.523C291.359 101.523 291.844 101.359 292.328 101.031C292.828 100.703 293.266 100.289 293.641 99.7891C294.031 99.2891 294.344 98.7578 294.578 98.1953C294.828 97.6172 294.953 97.0938 294.953 96.625C294.953 96.2344 294.859 95.9297 294.672 95.7109C294.484 95.4766 294.242 95.2969 293.945 95.1719C293.664 95.0312 293.359 94.9453 293.031 94.9141C292.703 94.8672 292.391 94.8438 292.094 94.8438C291.203 94.8438 290.516 95.0859 290.031 95.5703C289.562 96.0391 289.328 96.7031 289.328 97.5625Z" fill="#544A48"/>
</g>
<defs>
<clipPath id="clip0_375_583">
<rect width="391" height="118" fill="white"/>
</clipPath>
</defs>
</svg>
