{
  "accessors": [
    {
      "bufferView": 2,
      "componentType": 5126,
      "count": 100,
      "max": [
        298.8583984375,
        298.8583984375,
        10.0
      ],
      "min": [
        -298.8583984375,
        -298.8583984375,
        0.0
      ],
      "type": "VEC3"
    },
    {
      "bufferView": 2,
      "byteOffset": 1200,
      "componentType": 5126,
      "count": 100,
      "max": [
        0.9961947202682495,
        0.9961947202682495,
        1.0
      ],
      "min": [
        -0.9961947202682495,
        -0.9961947202682495,
        -1.0
      ],
      "type": "VEC3"
    },
    {
      "bufferView": 3,
      "componentType": 5126,
      "count": 100,
      "max": [
        0.9961947202682495,
        0.9961947202682495,
        0.0,
        1.0
      ],
      "min": [
        -0.9961947798728943,
        -0.9961947798728943,
        0.0,
        1.0
      ],
      "type": "VEC4"
    },
    {
      "bufferView": 1,
      "componentType": 5126,
      "count": 100,
      "max": [
        1.0,
        1.0
      ],
      "min": [
        0.0,
        0.0
      ],
      "type": "VEC2"
    },
    {
      "bufferView": 0,
      "componentType": 5125,
      "count": 288,
      "type": "SCALAR"
    },
    {
      "bufferView": 2,
      "byteOffset": 2400,
      "componentType": 5126,
      "count": 48,
      "max": [
        99.74742126464844,
        189.23191833496094,
        209.92660522460938
      ],
      "min": [
        -99.74742126464844,
        -189.2694854736328,
        10.058138847351074
      ],
      "type": "VEC3"
    },
    {
      "bufferView": 2,
      "byteOffset": 2976,
      "componentType": 5126,
      "count": 48,
      "max": [
        0.937861979007721,
        0.7813900113105774,
        0.9996539354324341
      ],
      "min": [
        -0.9379509091377258,
        -0.7650178074836731,
        -1.0
      ],
      "type": "VEC3"
    },
    {
      "bufferView": 3,
      "byteOffset": 1600,
      "componentType": 5126,
      "count": 48,
      "max": [
        1.0,
        0.7172461748123169,
        0.051204074174165726,
        1.0
      ],
      "min": [
        -0.02500140853226185,
        -1.0,
        -0.05352510139346123,
        -1.0
      ],
      "type": "VEC4"
    },
    {
      "bufferView": 1,
      "byteOffset": 800,
      "componentType": 5126,
      "count": 48,
      "max": [
        0.9937243461608887,
        0.9966713786125183
      ],
      "min": [
        -0.003415783867239952,
        0.007654666900634766
      ],
      "type": "VEC2"
    },
    {
      "bufferView": 0,
      "byteOffset": 1152,
      "componentType": 5125,
      "count": 132,
      "type": "SCALAR"
    },
    {
      "bufferView": 2,
      "byteOffset": 3552,
      "componentType": 5126,
      "count": 951,
      "max": [
        110.79443359375,
        195.27825927734375,
        242.12545776367188
      ],
      "min": [
        -106.94698333740234,
        -196.80023193359375,
        95.42896270751953
      ],
      "type": "VEC3"
    },
    {
      "bufferView": 2,
      "byteOffset": 14964,
      "componentType": 5126,
      "count": 951,
      "max": [
        0.9999554753303528,
        0.9993017911911011,
        0.9998043775558472
      ],
      "min": [
        -0.9999412298202515,
        -0.9992567896842957,
        -0.9578384160995483
      ],
      "type": "VEC3"
    },
    {
      "bufferView": 3,
      "byteOffset": 2368,
      "componentType": 5126,
      "count": 951,
      "max": [
        0.9999473094940186,
        0.988052487373352,
        0.9936543107032776,
        1.0
      ],
      "min": [
        -0.7915451526641846,
        -0.9872832894325256,
        -0.9885159134864807,
        -1.0
      ],
      "type": "VEC4"
    },
    {
      "bufferView": 1,
      "byteOffset": 1184,
      "componentType": 5126,
      "count": 951,
      "max": [
        1.0,
        0.999969482421875
      ],
      "min": [
        3.0517578125e-05,
        0.0
      ],
      "type": "VEC2"
    },
    {
      "bufferView": 0,
      "byteOffset": 1680,
      "componentType": 5125,
      "count": 5352,
      "type": "SCALAR"
    },
    {
      "bufferView": 2,
      "byteOffset": 26376,
      "componentType": 5126,
      "count": 38,
      "max": [
        -5.524141788482666,
        -9.995418548583984,
        348.8664245605469
      ],
      "min": [
        -24.613359451293945,
        -22.85149383544922,
        297.0780029296875
      ],
      "type": "VEC3"
    },
    {
      "bufferView": 2,
      "byteOffset": 26832,
      "componentType": 5126,
      "count": 38,
      "max": [
        0.9979984164237976,
        0.9897709488868713,
        0.7546291947364807
      ],
      "min": [
        -0.9926010966300964,
        -0.9812993407249451,
        -0.9698469638824463
      ],
      "type": "VEC3"
    },
    {
      "bufferView": 3,
      "byteOffset": 17584,
      "componentType": 5126,
      "count": 38,
      "max": [
        0.984808623790741,
        0.9848854541778564,
        0.20691171288490295,
        1.0
      ],
      "min": [
        -0.9852365851402283,
        -0.9851803779602051,
        -0.18360508978366852,
        1.0
      ],
      "type": "VEC4"
    },
    {
      "bufferView": 1,
      "byteOffset": 8792,
      "componentType": 5126,
      "count": 38,
      "max": [
        0.625,
        0.6407241821289063
      ],
      "min": [
        0.3750152587890625,
        0.375
      ],
      "type": "VEC2"
    },
    {
      "bufferView": 0,
      "byteOffset": 23088,
      "componentType": 5125,
      "count": 84,
      "type": "SCALAR"
    },
    {
      "bufferView": 2,
      "byteOffset": 27288,
      "componentType": 5126,
      "count": 251,
      "max": [
        63.78500747680664,
        59.46815872192383,
        309.4775695800781
      ],
      "min": [
        -62.18148422241211,
        -66.54363250732422,
        192.53982543945313
      ],
      "type": "VEC3"
    },
    {
      "bufferView": 2,
      "byteOffset": 30300,
      "componentType": 5126,
      "count": 251,
      "max": [
        0.9747347235679626,
        0.9784888625144958,
        0.9980582594871521
      ],
      "min": [
        -0.9913933277130127,
        -0.9948503971099854,
        -0.9983932971954346
      ],
      "type": "VEC3"
    },
    {
      "bufferView": 3,
      "byteOffset": 18192,
      "componentType": 5126,
      "count": 251,
      "max": [
        0.9941854476928711,
        0.9928463697433472,
        0.31620267033576965,
        1.0
      ],
      "min": [
        -0.9919139742851257,
        -0.9927318692207336,
        -0.3148835301399231,
        1.0
      ],
      "type": "VEC4"
    },
    {
      "bufferView": 1,
      "byteOffset": 9096,
      "componentType": 5126,
      "count": 251,
      "max": [
        1.0,
        0.999969482421875
      ],
      "min": [
        3.0517578125e-05,
        0.0
      ],
      "type": "VEC2"
    },
    {
      "bufferView": 0,
      "byteOffset": 23424,
      "componentType": 5125,
      "count": 1248,
      "type": "SCALAR"
    }
  ],
  "asset": {
    "extras": {
      "author": "brysew (https://sketchfab.com/brysew)",
      "license": "CC-BY-4.0 (http://creativecommons.org/licenses/by/4.0/)",
      "source": "https://sketchfab.com/3d-models/cake-with-cherry-353d9e6667a042b5b086302f1309ce8a",
      "title": "Cake with Cherry"
    },
    "generator": "Sketchfab-12.68.0",
    "version": "2.0"
  },
  "bufferViews": [
    {
      "buffer": 0,
      "byteLength": 28416,
      "name": "floatBufferViews",
      "target": 34963
    },
    {
      "buffer": 0,
      "byteLength": 11104,
      "byteOffset": 28416,
      "byteStride": 8,
      "name": "floatBufferViews",
      "target": 34962
    },
    {
      "buffer": 0,
      "byteLength": 33312,
      "byteOffset": 39520,
      "byteStride": 12,
      "name": "floatBufferViews",
      "target": 34962
    },
    {
      "buffer": 0,
      "byteLength": 22208,
      "byteOffset": 72832,
      "byteStride": 16,
      "name": "floatBufferViews",
      "target": 34962
    }
  ],
  "buffers": [
    {
      "byteLength": 95040,
      "uri": "scene.bin"
    }
  ],
  "images": [
    {
      "uri": "textures/Wood_baseColor.png"
    },
    {
      "uri": "textures/Wood_normal.png"
    },
    {
      "uri": "textures/Sherry_baseColor.png"
    },
    {
      "uri": "textures/Sherry_metallicRoughness.png"
    },
    {
      "uri": "textures/Sherry_normal.png"
    },
    {
      "uri": "textures/Krame_baseColor.png"
    },
    {
      "uri": "textures/Krame_metallicRoughness.png"
    },
    {
      "uri": "textures/Krame_normal.png"
    },
    {
      "uri": "textures/Cake_baseColor.png"
    },
    {
      "uri": "textures/Cake_metallicRoughness.png"
    },
    {
      "uri": "textures/Cake_normal.png"
    }
  ],
  "materials": [
    {
      "doubleSided": true,
      "name": "Wood",
      "normalTexture": {
        "index": 1
      },
      "pbrMetallicRoughness": {
        "baseColorTexture": {
          "index": 0
        },
        "metallicFactor": 0.0,
        "roughnessFactor": 0.3553734756097561
      }
    },
    {
      "doubleSided": true,
      "name": "Sherry",
      "normalTexture": {
        "index": 4
      },
      "pbrMetallicRoughness": {
        "baseColorTexture": {
          "index": 2
        },
        "metallicFactor": 0.25,
        "metallicRoughnessTexture": {
          "index": 3
        },
        "roughnessFactor": 0.3
      }
    },
    {
      "doubleSided": true,
      "name": "Krame",
      "normalTexture": {
        "index": 7
      },
      "pbrMetallicRoughness": {
        "baseColorFactor": [
          0.85,
          0.85,
          0.85,
          1.0
        ],
        "baseColorTexture": {
          "index": 5
        },
        "metallicFactor": 0.0,
        "metallicRoughnessTexture": {
          "index": 6
        },
        "roughnessFactor": 0.3
      }
    },
    {
      "doubleSided": true,
      "name": "Cake",
      "normalTexture": {
        "index": 10
      },
      "pbrMetallicRoughness": {
        "baseColorTexture": {
          "index": 8
        },
        "metallicFactor": 0.0,
        "metallicRoughnessTexture": {
          "index": 9
        },
        "roughnessFactor": 0.7
      }
    }
  ],
  "meshes": [
    {
      "name": "Object_0",
      "primitives": [
        {
          "attributes": {
            "NORMAL": 1,
            "POSITION": 0,
            "TANGENT": 2,
            "TEXCOORD_0": 3
          },
          "indices": 4,
          "material": 0,
          "mode": 4
        }
      ]
    },
    {
      "name": "Object_1",
      "primitives": [
        {
          "attributes": {
            "NORMAL": 6,
            "POSITION": 5,
            "TANGENT": 7,
            "TEXCOORD_0": 8
          },
          "indices": 9,
          "material": 3,
          "mode": 4
        }
      ]
    },
    {
      "name": "Object_2",
      "primitives": [
        {
          "attributes": {
            "NORMAL": 11,
            "POSITION": 10,
            "TANGENT": 12,
            "TEXCOORD_0": 13
          },
          "indices": 14,
          "material": 2,
          "mode": 4
        }
      ]
    },
    {
      "name": "Object_3",
      "primitives": [
        {
          "attributes": {
            "NORMAL": 16,
            "POSITION": 15,
            "TANGENT": 17,
            "TEXCOORD_0": 18
          },
          "indices": 19,
          "material": 0,
          "mode": 4
        }
      ]
    },
    {
      "name": "Object_4",
      "primitives": [
        {
          "attributes": {
            "NORMAL": 21,
            "POSITION": 20,
            "TANGENT": 22,
            "TEXCOORD_0": 23
          },
          "indices": 24,
          "material": 1,
          "mode": 4
        }
      ]
    }
  ],
  "nodes": [
    {
      "children": [
        1
      ],
      "matrix": [
        0.0020000000949949026,
        0.0,
        0.0,
        0.0,
        0.0,
        4.440892309431682e-19,
        -0.0020000000949949026,
        0.0,
        0.0,
        0.0020000000949949026,
        4.440892309431682e-19,
        0.0,
        0.0,
        0.0,
        0.0,
        1.0
      ],
      "name": "Sketchfab_model"
    },
    {
      "children": [
        2,
        5,
        8,
        11
      ],
      "name": "Cake.3ds"
    },
    {
      "children": [
        3
      ],
      "matrix": [
        0.9396926164627075,
        0.3420201539993286,
        0.0,
        0.0,
        -0.3420201539993286,
        0.9396926164627075,
        0.0,
        0.0,
        0.0,
        0.0,
        1.0,
        0.0,
        0.0,
        0.0,
        5.0,
        1.0
      ],
      "name": "Tarel"
    },
    {
      "children": [
        4
      ],
      "matrix": [
        0.9396926172367759,
        -0.34202015428106647,
        0.0,
        0.0,
        0.34202015428106647,
        0.9396926172367759,
        0.0,
        0.0,
        -0.0,
        0.0,
        1.0,
        0.0,
        -0.0,
        -0.0,
        -5.0,
        1.0
      ],
      "name": "3DSMeshMatrix"
    },
    {
      "mesh": 0,
      "name": "Object_4"
    },
    {
      "children": [
        6
      ],
      "matrix": [
        1.0,
        0.0,
        0.0,
        0.0,
        0.0,
        1.0,
        0.0,
        0.0,
        0.0,
        0.0,
        1.0,
        0.0,
        0.0,
        0.0,
        110.05813598632813,
        1.0
      ],
      "name": "Cake"
    },
    {
      "children": [
        7
      ],
      "matrix": [
        1.0,
        0.0,
        0.0,
        0.0,
        0.0,
        1.0,
        0.0,
        0.0,
        0.0,
        0.0,
        1.0,
        0.0,
        -0.0,
        -0.0,
        -110.05813598632813,
        1.0
      ],
      "name": "3DSMeshMatrix"
    },
    {
      "mesh": 1,
      "name": "Object_7"
    },
    {
      "children": [
        9
      ],
      "matrix": [
        1.0,
        0.0,
        0.0,
        0.0,
        0.0,
        1.0,
        0.0,
        0.0,
        0.0,
        0.0,
        1.0,
        0.0,
        0.0,
        0.0,
        110.05813598632813,
        1.0
      ],
      "name": "Krame"
    },
    {
      "children": [
        10
      ],
      "matrix": [
        1.0,
        0.0,
        0.0,
        0.0,
        0.0,
        1.0,
        0.0,
        0.0,
        0.0,
        0.0,
        1.0,
        0.0,
        -0.0,
        -0.0,
        -110.05813598632813,
        1.0
      ],
      "name": "3DSMeshMatrix"
    },
    {
      "mesh": 2,
      "name": "Object_10"
    },
    {
      "children": [
        12,
        15
      ],
      "matrix": [
        0.9848077297210693,
        0.0,
        0.1736481785774231,
        0.0,
        -0.03015368990600109,
        0.9848077297210693,
        0.1710100769996643,
        0.0,
        -0.1710100769996643,
        -0.1736481785774231,
        0.9698463082313538,
        0.0,
        -4.020423412322998,
        -8.425211906433105,
        283.4361572265625,
        1.0
      ],
      "name": "Cherry_Ful"
    },
    {
      "children": [
        13
      ],
      "matrix": [
        0.9999999999999998,
        -3.469446951953614e-18,
        0.0,
        0.0,
        0.0,
        0.9999999999999999,
        0.0,
        0.0,
        -2.7755575615628914e-17,
        -2.7755575615628914e-17,
        0.9999999999999998,
        0.0,
        -1.8193802944210802e-06,
        -1.0384996116385992e-06,
        35.40181600989814,
        1.0
      ],
      "name": "Line"
    },
    {
      "children": [
        14
      ],
      "matrix": [
        0.9848077745014201,
        -0.030153691304913206,
        -0.1710100763507944,
        0.0,
        -1.6005429898102719e-09,
        0.9848077745014201,
        -0.17364818697567322,
        0.0,
        0.1736481869756732,
        0.1710100763507944,
        0.9698463089571888,
        0.0,
        -45.25882972579171,
        -40.294454239846786,
        -312.4418824451431,
        1.0
      ],
      "name": "3DSMeshMatrix"
    },
    {
      "mesh": 3,
      "name": "Object_14"
    },
    {
      "children": [
        16
      ],
      "matrix": [
        0.9999999999999998,
        -3.469446951953614e-18,
        0.0,
        0.0,
        0.0,
        0.9999999999999999,
        0.0,
        0.0,
        -2.7755575615628914e-17,
        -2.7755575615628914e-17,
        0.9999999999999998,
        0.0,
        1.8193802944210802e-06,
        1.5080925521715471e-06,
        -35.40181609270002,
        1.0
      ],
      "name": "Cherry"
    },
    {
      "children": [
        17
      ],
      "matrix": [
        0.9848077745014201,
        -0.030153691304913206,
        -0.1710100763507944,
        0.0,
        -1.6005429898102719e-09,
        0.9848077745014201,
        -0.17364818697567322,
        0.0,
        0.1736481869756732,
        0.1710100763507944,
        0.9698463089571888,
        0.0,
        -45.25882907131595,
        -40.29445399256021,
        -241.63823587066952,
        1.0
      ],
      "name": "3DSMeshMatrix"
    },
    {
      "mesh": 4,
      "name": "Object_17"
    }
  ],
  "samplers": [
    {
      "magFilter": 9729,
      "minFilter": 9987,
      "wrapS": 10497,
      "wrapT": 10497
    }
  ],
  "scene": 0,
  "scenes": [
    {
      "name": "Sketchfab_Scene",
      "nodes": [
        0
      ]
    }
  ],
  "textures": [
    {
      "sampler": 0,
      "source": 0
    },
    {
      "sampler": 0,
      "source": 1
    },
    {
      "sampler": 0,
      "source": 2
    },
    {
      "sampler": 0,
      "source": 3
    },
    {
      "sampler": 0,
      "source": 4
    },
    {
      "sampler": 0,
      "source": 5
    },
    {
      "sampler": 0,
      "source": 6
    },
    {
      "sampler": 0,
      "source": 7
    },
    {
      "sampler": 0,
      "source": 8
    },
    {
      "sampler": 0,
      "source": 9
    },
    {
      "sampler": 0,
      "source": 10
    }
  ]
}
