{
    "asset": {
        "version": "2.0",
        "generator": "Open Asset Import Library (assimp v5.4.0)"
    },
    "extensionsUsed": [
        "KHR_materials_volume",
        "FB_ngon_encoding"
    ],
    "accessors": [
        {
            "bufferView": 0,
            "byteOffset": 0,
            "componentType": 5126,
            "count": 358,
            "type": "VEC3",
            "max": [
                23.078514099121094,
                23.0747127532959,
                7.564171314239502
            ],
            "min": [
                -22.940196990966797,
                -24.296480178833008,
                -6.818837642669678
            ]
        },
        {
            "bufferView": 1,
            "byteOffset": 0,
            "componentType": 5126,
            "count": 358,
            "type": "VEC3",
            "max": [
                0.9927185773849487,
                0.9597814083099365,
                0.9985555410385132
            ],
            "min": [
                -0.9376435279846191,
                -0.9976767301559448,
                -0.9988225102424622
            ]
        },
        {
            "bufferView": 2,
            "byteOffset": 0,
            "componentType": 5126,
            "count": 358,
            "type": "VEC2",
            "max": [
                0.9953390955924988,
                0.991406261920929
            ],
            "min": [
                0.0025345757603645325,
                0.014582633972167969
            ]
        },
        {
            "bufferView": 3,
            "byteOffset": 0,
            "componentType": 5126,
            "count": 358,
            "type": "VEC2",
            "max": [
                0.9953390955924988,
                0.991406261920929
            ],
            "min": [
                0.0025345757603645325,
                0.014582633972167969
            ]
        },
        {
            "bufferView": 4,
            "byteOffset": 0,
            "componentType": 5125,
            "count": 1380,
            "type": "SCALAR",
            "max": [
                357
            ],
            "min": [
                0
            ]
        },
        {
            "bufferView": 5,
            "byteOffset": 0,
            "componentType": 5126,
            "count": 358,
            "type": "VEC3",
            "max": [
                24.892648696899414,
                23.8757381439209,
                7.564169883728027
            ],
            "min": [
                -22.44914436340332,
                -22.97599983215332,
                -6.8188371658325195
            ]
        },
        {
            "bufferView": 6,
            "byteOffset": 0,
            "componentType": 5126,
            "count": 358,
            "type": "VEC3",
            "max": [
                0.9534099102020264,
                0.9478606581687927,
                0.9985560178756714
            ],
            "min": [
                -0.9522865414619446,
                -0.9958030581474304,
                -0.9988237023353577
            ]
        },
        {
            "bufferView": 7,
            "byteOffset": 0,
            "componentType": 5126,
            "count": 358,
            "type": "VEC2",
            "max": [
                0.9953390955924988,
                0.991406261920929
            ],
            "min": [
                0.0025345757603645325,
                0.014582633972167969
            ]
        },
        {
            "bufferView": 8,
            "byteOffset": 0,
            "componentType": 5126,
            "count": 358,
            "type": "VEC2",
            "max": [
                0.9953390955924988,
                0.991406261920929
            ],
            "min": [
                0.0025345757603645325,
                0.014582633972167969
            ]
        },
        {
            "bufferView": 9,
            "byteOffset": 0,
            "componentType": 5125,
            "count": 1380,
            "type": "SCALAR",
            "max": [
                357
            ],
            "min": [
                0
            ]
        },
        {
            "bufferView": 10,
            "byteOffset": 0,
            "componentType": 5126,
            "count": 358,
            "type": "VEC3",
            "max": [
                22.635793685913086,
                23.165639877319336,
                7.564169883728027
            ],
            "min": [
                -25.182321548461914,
                -23.846384048461914,
                -6.818836212158203
            ]
        },
        {
            "bufferView": 11,
            "byteOffset": 0,
            "componentType": 5126,
            "count": 358,
            "type": "VEC3",
            "max": [
                0.9511626362800598,
                0.9937566518783569,
                0.9985557794570923
            ],
            "min": [
                -0.9598840475082397,
                -0.9585755467414856,
                -0.9988221526145935
            ]
        },
        {
            "bufferView": 12,
            "byteOffset": 0,
            "componentType": 5126,
            "count": 358,
            "type": "VEC2",
            "max": [
                0.9953390955924988,
                0.991406261920929
            ],
            "min": [
                0.0025345757603645325,
                0.014582633972167969
            ]
        },
        {
            "bufferView": 13,
            "byteOffset": 0,
            "componentType": 5126,
            "count": 358,
            "type": "VEC2",
            "max": [
                0.9953390955924988,
                0.991406261920929
            ],
            "min": [
                0.0025345757603645325,
                0.014582633972167969
            ]
        },
        {
            "bufferView": 14,
            "byteOffset": 0,
            "componentType": 5125,
            "count": 1380,
            "type": "SCALAR",
            "max": [
                357
            ],
            "min": [
                0
            ]
        }
    ],
    "buffers": [
        {
            "byteLength": 59520,
            "uri": "chocolate_mini_cookies_0.bin"
        }
    ],
    "bufferViews": [
        {
            "buffer": 0,
            "byteOffset": 0,
            "byteLength": 4296,
            "target": 34962
        },
        {
            "buffer": 0,
            "byteOffset": 4296,
            "byteLength": 4296,
            "target": 34962
        },
        {
            "buffer": 0,
            "byteOffset": 8592,
            "byteLength": 2864,
            "target": 34962
        },
        {
            "buffer": 0,
            "byteOffset": 11456,
            "byteLength": 2864,
            "target": 34962
        },
        {
            "buffer": 0,
            "byteOffset": 14320,
            "byteLength": 5520,
            "target": 34963
        },
        {
            "buffer": 0,
            "byteOffset": 19840,
            "byteLength": 4296,
            "target": 34962
        },
        {
            "buffer": 0,
            "byteOffset": 24136,
            "byteLength": 4296,
            "target": 34962
        },
        {
            "buffer": 0,
            "byteOffset": 28432,
            "byteLength": 2864,
            "target": 34962
        },
        {
            "buffer": 0,
            "byteOffset": 31296,
            "byteLength": 2864,
            "target": 34962
        },
        {
            "buffer": 0,
            "byteOffset": 34160,
            "byteLength": 5520,
            "target": 34963
        },
        {
            "buffer": 0,
            "byteOffset": 39680,
            "byteLength": 4296,
            "target": 34962
        },
        {
            "buffer": 0,
            "byteOffset": 43976,
            "byteLength": 4296,
            "target": 34962
        },
        {
            "buffer": 0,
            "byteOffset": 48272,
            "byteLength": 2864,
            "target": 34962
        },
        {
            "buffer": 0,
            "byteOffset": 51136,
            "byteLength": 2864,
            "target": 34962
        },
        {
            "buffer": 0,
            "byteOffset": 54000,
            "byteLength": 5520,
            "target": 34963
        }
    ],
    "images": [
        {
            "uri": "textures/image_1.png"
        },
        {
            "uri": "textures/image_0.png"
        },
        {
            "uri": "textures/image_2.png"
        },
        {
            "uri": "textures/image_3.png"
        },
        {
            "uri": "textures/image_4.png"
        }
    ],
    "materials": [
        {
            "name": "cookie_01",
            "pbrMetallicRoughness": {
                "baseColorTexture": {
                    "index": 0
                },
                "metallicRoughnessTexture": {
                    "index": 1
                },
                "metallicFactor": 0.0
            },
            "normalTexture": {
                "index": 2
            },
            "occlusionTexture": {
                "index": 1,
                "texCoord": 1
            },
            "doubleSided": true
        },
        {
            "name": "cookie_03",
            "pbrMetallicRoughness": {
                "baseColorTexture": {
                    "index": 3
                },
                "metallicRoughnessTexture": {
                    "index": 1
                },
                "metallicFactor": 0.0
            },
            "normalTexture": {
                "index": 2
            },
            "occlusionTexture": {
                "index": 1,
                "texCoord": 1
            },
            "doubleSided": true
        },
        {
            "name": "cookie_02",
            "pbrMetallicRoughness": {
                "baseColorTexture": {
                    "index": 4
                },
                "metallicRoughnessTexture": {
                    "index": 1
                },
                "metallicFactor": 0.0
            },
            "normalTexture": {
                "index": 2
            },
            "occlusionTexture": {
                "index": 1,
                "texCoord": 1
            },
            "doubleSided": true
        }
    ],
    "meshes": [
        {
            "name": "meshes[0]",
            "primitives": [
                {
                    "mode": 4,
                    "material": 0,
                    "indices": 4,
                    "attributes": {
                        "POSITION": 0,
                        "NORMAL": 1,
                        "TEXCOORD_0": 2,
                        "TEXCOORD_1": 3
                    }
                }
            ]
        },
        {
            "name": "meshes[1]",
            "primitives": [
                {
                    "mode": 4,
                    "material": 1,
                    "indices": 9,
                    "attributes": {
                        "POSITION": 5,
                        "NORMAL": 6,
                        "TEXCOORD_0": 7,
                        "TEXCOORD_1": 8
                    }
                }
            ]
        },
        {
            "name": "meshes[2]",
            "primitives": [
                {
                    "mode": 4,
                    "material": 2,
                    "indices": 14,
                    "attributes": {
                        "POSITION": 10,
                        "NORMAL": 11,
                        "TEXCOORD_0": 12,
                        "TEXCOORD_1": 13
                    }
                }
            ]
        }
    ],
    "nodes": [
        {
            "name": "chocolate_mini_cookies",
            "children": [
                1
            ]
        },
        {
            "name": "Sketchfab_model",
            "matrix": [
                1.0,
                0.0,
                0.0,
                0.0,
                0.0,
                2.220446049250313e-16,
                -1.0,
                0.0,
                0.0,
                1.0,
                2.220446049250313e-16,
                0.0,
                0.0,
                0.0,
                0.0,
                1.0
            ],
            "children": [
                2
            ],
            "extras": {
                "name": "Sketchfab_model"
            }
        },
        {
            "name": "2211e56fece34ac09886fa28b1b56b05fbx",
            "matrix": [
                0.009999999776482582,
                0.0,
                0.0,
                0.0,
                0.0,
                2.2204459996194763e-18,
                0.009999999776482582,
                0.0,
                0.0,
                -0.009999999776482582,
                2.2204459996194763e-18,
                0.0,
                0.0,
                0.0,
                0.0,
                1.0
            ],
            "children": [
                3
            ],
            "extras": {
                "name": "2211e56fece34ac09886fa28b1b56b05.fbx"
            }
        },
        {
            "name": "RootNode",
            "children": [
                4,
                6,
                8
            ],
            "extras": {
                "name": "RootNode"
            }
        },
        {
            "name": "cookie_01",
            "matrix": [
                1.0,
                0.0,
                0.0,
                0.0,
                0.0,
                1.0,
                0.0,
                0.0,
                0.0,
                0.0,
                1.0,
                0.0,
                -3.73417067527771,
                6.531826972961426,
                15.276996612548828,
                1.0
            ],
            "children": [
                5
            ],
            "extras": {
                "name": "cookie_01"
            }
        },
        {
            "name": "cookie_01_cookie_01_0",
            "mesh": 0,
            "extras": {
                "name": "cookie_01_cookie_01_0"
            }
        },
        {
            "name": "cookie_02",
            "matrix": [
                1.0,
                0.0,
                0.0,
                0.0,
                0.0,
                1.0,
                0.0,
                0.0,
                0.0,
                0.0,
                1.0,
                0.0,
                -43.53207015991211,
                14.072482109069824,
                2.2903099060058594,
                1.0
            ],
            "children": [
                7
            ],
            "extras": {
                "name": "cookie_02"
            }
        },
        {
            "name": "cookie_02_cookie_03_0",
            "mesh": 1,
            "extras": {
                "name": "cookie_02_cookie_03_0"
            }
        },
        {
            "name": "cookie_03",
            "matrix": [
                1.0,
                0.0,
                0.0,
                0.0,
                0.0,
                1.0,
                0.0,
                0.0,
                0.0,
                0.0,
                1.0,
                0.0,
                36.17807388305664,
                14.072482109069824,
                2.2903218269348145,
                1.0
            ],
            "children": [
                9
            ],
            "extras": {
                "name": "cookie_03"
            }
        },
        {
            "name": "cookie_03_cookie_02_0",
            "mesh": 2,
            "extras": {
                "name": "cookie_03_cookie_02_0"
            }
        }
    ],
    "samplers": [
        {
            "magFilter": 9729,
            "minFilter": 9987
        },
        {
            "magFilter": 9729,
            "minFilter": 9987
        },
        {
            "magFilter": 9729,
            "minFilter": 9987
        },
        {
            "magFilter": 9729,
            "minFilter": 9987
        },
        {
            "magFilter": 9729,
            "minFilter": 9987
        }
    ],
    "scenes": [
        {
            "nodes": [
                0
            ]
        }
    ],
    "textures": [
        {
            "source": 0,
            "sampler": 0
        },
        {
            "source": 1,
            "sampler": 1
        },
        {
            "source": 2,
            "sampler": 2
        },
        {
            "source": 3,
            "sampler": 3
        },
        {
            "source": 4,
            "sampler": 4
        }
    ],
    "scene": 0
}