{
  "accessors": [
    {
      "bufferView": 2,
      "componentType": 5126,
      "count": 1587,
      "max": [
        1.171149492263794,
        1.171149492263794,
        1.0641142129898071
      ],
      "min": [
        -1.1712844371795654,
        -1.1712844371795654,
        0.02844158187508583
      ],
      "type": "VEC3"
    },
    {
      "bufferView": 2,
      "byteOffset": 19044,
      "componentType": 5126,
      "count": 1587,
      "max": [
        0.999833345413208,
        0.9998754262924194,
        1.0
      ],
      "min": [
        -0.9951215386390686,
        -0.9996777176856995,
        -1.0
      ],
      "type": "VEC3"
    },
    {
      "bufferView": 3,
      "componentType": 5126,
      "count": 1587,
      "max": [
        0.9998026490211487,
        0.9993038177490234,
        0.9969218969345093,
        1.0
      ],
      "min": [
        -0.9993693232536316,
        -0.9995388388633728,
        -0.9964319467544556,
        -1.0
      ],
      "type": "VEC4"
    },
    {
      "bufferView": 3,
      "byteOffset": 25392,
      "componentType": 5126,
      "count": 1587,
      "max": [
        1.0,
        1.0,
        1.0,
        1.0
      ],
      "min": [
        0.9960784316062927,
        0.9960784316062927,
        0.9960784316062927,
        1.0
      ],
      "type": "VEC4"
    },
    {
      "bufferView": 1,
      "componentType": 5126,
      "count": 1587,
      "max": [
        0.9921314120292664,
        0.9822579622268677
      ],
      "min": [
        0.0024760165251791477,
        0.002476014429703355
      ],
      "type": "VEC2"
    },
    {
      "bufferView": 1,
      "byteOffset": 12696,
      "componentType": 5126,
      "count": 1587,
      "max": [
        9.966657638549805,
        0.9952048063278198
      ],
      "min": [
        1.0048776865005493,
        0.0047951964661479
      ],
      "type": "VEC2"
    },
    {
      "bufferView": 0,
      "componentType": 5125,
      "count": 6996,
      "type": "SCALAR"
    }
  ],
  "asset": {
    "extras": {
      "author": "BenJin1015 (https://sketchfab.com/BenJin1)",
      "license": "CC-BY-NC-ND-4.0 (http://creativecommons.org/licenses/by-nc-nd/4.0/)",
      "source": "https://sketchfab.com/3d-models/strawberry-pudding-f4cf2f5f209240a0bcc0a7b0bfcc7b35",
      "title": "Strawberry pudding"
    },
    "generator": "Sketchfab-16.59.0",
    "version": "2.0"
  },
  "bufferViews": [
    {
      "buffer": 0,
      "byteLength": 27984,
      "name": "floatBufferViews",
      "target": 34963
    },
    {
      "buffer": 0,
      "byteLength": 25392,
      "byteOffset": 27984,
      "byteStride": 8,
      "name": "floatBufferViews",
      "target": 34962
    },
    {
      "buffer": 0,
      "byteLength": 38088,
      "byteOffset": 53376,
      "byteStride": 12,
      "name": "floatBufferViews",
      "target": 34962
    },
    {
      "buffer": 0,
      "byteLength": 50784,
      "byteOffset": 91464,
      "byteStride": 16,
      "name": "floatBufferViews",
      "target": 34962
    }
  ],
  "buffers": [
    {
      "byteLength": 142248,
      "uri": "scene.bin"
    }
  ],
  "extensionsUsed": [
    "KHR_materials_emissive_strength"
  ],
  "images": [
    {
      "uri": "textures/pudding_mat_baseColor.png"
    },
    {
      "uri": "textures/pudding_mat_metallicRoughness.png"
    },
    {
      "uri": "textures/pudding_mat_normal.png"
    }
  ],
  "materials": [
    {
      "doubleSided": true,
      "extensions": {
        "KHR_materials_emissive_strength": {
          "emissiveStrength": 1.2038131925735391
        }
      },
      "name": "pudding_mat",
      "normalTexture": {
        "index": 2
      },
      "pbrMetallicRoughness": {
        "baseColorTexture": {
          "index": 0
        },
        "metallicRoughnessTexture": {
          "index": 1
        }
      }
    }
  ],
  "meshes": [
    {
      "name": "pudding_total_pudding_mat_0",
      "primitives": [
        {
          "attributes": {
            "COLOR_0": 3,
            "NORMAL": 1,
            "POSITION": 0,
            "TANGENT": 2,
            "TEXCOORD_0": 4,
            "TEXCOORD_1": 5
          },
          "indices": 6,
          "material": 0,
          "mode": 4
        }
      ]
    }
  ],
  "nodes": [
    {
      "children": [
        1
      ],
      "matrix": [
        1.0,
        0.0,
        0.0,
        0.0,
        0.0,
        2.220446049250313e-16,
        -1.0,
        0.0,
        0.0,
        1.0,
        2.220446049250313e-16,
        0.0,
        0.0,
        0.0,
        0.0,
        1.0
      ],
      "name": "Sketchfab_model"
    },
    {
      "children": [
        2
      ],
      "matrix": [
        0.009999999776482582,
        0.0,
        0.0,
        0.0,
        0.0,
        0.0,
        0.009999999776482582,
        0.0,
        0.0,
        -0.009999999776482582,
        0.0,
        0.0,
        0.0,
        0.0,
        0.0,
        1.0
      ],
      "name": "a073ec6b65f74d75a37cedf32053dad7.fbx"
    },
    {
      "children": [
        3
      ],
      "name": "RootNode"
    },
    {
      "children": [
        4
      ],
      "matrix": [
        100.0,
        0.0,
        0.0,
        0.0,
        0.0,
        -1.629206793918314e-05,
        -99.99999999999868,
        0.0,
        0.0,
        99.99999999999868,
        -1.629206793918314e-05,
        0.0,
        0.0,
        0.0,
        0.0,
        1.0
      ],
      "name": "pudding_total"
    },
    {
      "mesh": 0,
      "name": "pudding_total_pudding_mat_0"
    }
  ],
  "samplers": [
    {
      "magFilter": 9729,
      "minFilter": 9987,
      "wrapS": 10497,
      "wrapT": 10497
    }
  ],
  "scene": 0,
  "scenes": [
    {
      "name": "Sketchfab_Scene",
      "nodes": [
        0
      ]
    }
  ],
  "textures": [
    {
      "sampler": 0,
      "source": 0
    },
    {
      "sampler": 0,
      "source": 1
    },
    {
      "sampler": 0,
      "source": 2
    }
  ]
}
